<svg xmlns="http://www.w3.org/2000/svg" xmlns:xlink="http://www.w3.org/1999/xlink" viewBox="0,0,256,256" width="64px" height="64px" fill-rule="nonzero"><defs><linearGradient x1="26" y1="29" x2="26" y2="33" gradientUnits="userSpaceOnUse" id="color-1"><stop offset="0" stop-color="#20c997"></stop><stop offset="1" stop-color="#e6abff"></stop></linearGradient><linearGradient x1="32" y1="29" x2="32" y2="33" gradientUnits="userSpaceOnUse" id="color-2"><stop offset="0" stop-color="#20c997"></stop><stop offset="1" stop-color="#e6abff"></stop></linearGradient><linearGradient x1="26" y1="35" x2="26" y2="39" gradientUnits="userSpaceOnUse" id="color-3"><stop offset="0" stop-color="#20c997"></stop><stop offset="1" stop-color="#e6abff"></stop></linearGradient><linearGradient x1="32" y1="35" x2="32" y2="39" gradientUnits="userSpaceOnUse" id="color-4"><stop offset="0" stop-color="#20c997"></stop><stop offset="1" stop-color="#e6abff"></stop></linearGradient><linearGradient x1="32" y1="19" x2="32" y2="25.956" gradientUnits="userSpaceOnUse" id="color-5"><stop offset="0" stop-color="#20c997"></stop><stop offset="1" stop-color="#e6abff"></stop></linearGradient><linearGradient x1="32" y1="9" x2="32" y2="55" gradientUnits="userSpaceOnUse" id="color-6"><stop offset="0" stop-color="#1a6dff"></stop><stop offset="1" stop-color="#c822ff"></stop></linearGradient><linearGradient x1="29" y1="41" x2="29" y2="45" gradientUnits="userSpaceOnUse" id="color-7"><stop offset="0" stop-color="#20c997"></stop><stop offset="1" stop-color="#e6abff"></stop></linearGradient></defs><g transform=""><g fill="none" fill-rule="nonzero" stroke="none" stroke-width="1" stroke-linecap="butt" stroke-linejoin="miter" stroke-miterlimit="10" stroke-dasharray="" stroke-dashoffset="0" font-family="none" font-weight="none" font-size="none" text-anchor="none" style="mix-blend-mode: normal"><g transform="scale(4,4)"><circle cx="26" cy="31" r="2" fill="url(#color-1)"></circle><circle cx="32" cy="31" r="2" fill="url(#color-2)"></circle><circle cx="26" cy="37" r="2" fill="url(#color-3)"></circle><circle cx="32" cy="37" r="2" fill="url(#color-4)"></circle><path d="M38,25.957h-12c-1.105,0 -2,-0.895 -2,-2v-2.957c0,-1.105 0.895,-2 2,-2h12c1.105,0 2,0.895 2,2v2.957c0,1.104 -0.895,2 -2,2z" fill="url(#color-5)"></path><path d="M39,49h-14c-2.757,0 -5,-2.243 -5,-5v-24c0,-2.757 2.243,-5 5,-5h14c2.757,0 5,2.243 5,5v24c0,2.757 -2.243,5 -5,5zM25,17c-1.654,0 -3,1.346 -3,3v24c0,1.654 1.346,3 3,3h14c1.654,0 3,-1.346 3,-3v-24c0,-1.654 -1.346,-3 -3,-3zM38,29c-1.105,0 -2,0.895 -2,2c0,1.105 0.895,2 2,2c1.105,0 2,-0.895 2,-2c0,-1.105 -0.895,-2 -2,-2zM38,35c-1.105,0 -2,0.895 -2,2c0,1.105 0.895,2 2,2c1.105,0 2,-0.895 2,-2c0,-1.105 -0.895,-2 -2,-2zM38,41c-1.105,0 -2,0.895 -2,2c0,1.105 0.895,2 2,2c1.105,0 2,-0.895 2,-2c0,-1.105 -0.895,-2 -2,-2zM50,55h-36c-2.757,0 -5,-2.243 -5,-5v-36c0,-2.757 2.243,-5 5,-5h36c2.757,0 5,2.243 5,5v36c0,2.757 -2.243,5 -5,5zM14,11c-1.654,0 -3,1.346 -3,3v36c0,1.654 1.346,3 3,3h36c1.654,0 3,-1.346 3,-3v-36c0,-1.654 -1.346,-3 -3,-3z" fill="url(#color-6)"></path><path d="M32,41h-6c-1.105,0 -2,0.895 -2,2c0,1.105 0.895,2 2,2h6c1.105,0 2,-0.895 2,-2c0,-1.105 -0.895,-2 -2,-2z" fill="url(#color-7)"></path></g></g></g></svg>